<svg width="1956" height="1147" viewBox="0 0 1956 1147" fill="none" xmlns="http://www.w3.org/2000/svg">
<path d="M0 30C0 13.4314 13.4315 0 30 0H1925.56C1942.12 0 1955.56 13.4315 1955.56 30V1100H0V30Z" fill="#F9FFEB"/>
<mask id="path-2-inside-1_7_108" fill="white">
<path d="M1665.32 790.271C1665.32 815.363 1542.68 753.53 1160.35 753.53C778.015 753.53 300.048 769.66 280.78 790.271C280.78 407.94 590.721 98 973.052 98C1355.38 98 1665.32 407.94 1665.32 790.271Z"/>
</mask>
<path d="M280.78 790.271H275.78V802.942L284.433 793.686L280.78 790.271ZM1670.32 790.271C1670.32 783.715 1670.23 777.179 1670.05 770.665L1660.06 770.941C1660.23 777.363 1660.32 783.807 1660.32 790.271H1670.32ZM1667.89 731.62C1666.8 718.56 1665.36 705.602 1663.56 692.755L1653.65 694.141C1655.43 706.803 1656.85 719.576 1657.93 732.45L1667.89 731.62ZM1657.05 654.196C1654.51 641.356 1651.62 628.642 1648.38 616.065L1638.7 618.556C1641.89 630.951 1644.74 643.481 1647.24 656.137L1657.05 654.196ZM1637.57 578.459C1633.6 565.994 1629.29 553.681 1624.65 541.53L1615.31 545.099C1619.88 557.073 1624.13 569.209 1628.04 581.494L1637.57 578.459ZM1609.66 505.395C1604.32 493.471 1598.65 481.724 1592.67 470.166L1583.78 474.763C1589.68 486.155 1595.27 497.732 1600.54 509.485L1609.66 505.395ZM1573.72 435.95C1567.07 424.711 1560.12 413.675 1552.88 402.853L1544.57 408.416C1551.71 419.083 1558.56 429.961 1565.11 441.039L1573.72 435.95ZM1530.21 370.971C1522.36 360.551 1514.22 350.358 1505.81 340.404L1498.17 346.859C1506.46 356.671 1514.49 366.719 1522.23 376.99L1530.21 370.971ZM1479.73 311.248C1470.77 301.773 1461.55 292.55 1452.08 283.59L1445.2 290.856C1454.54 299.688 1463.64 308.78 1472.47 318.119L1479.73 311.248ZM1422.92 257.517C1412.97 249.103 1402.77 240.963 1392.35 233.109L1386.33 241.094C1396.6 248.837 1406.65 256.86 1416.46 265.154L1422.92 257.517ZM1360.47 210.448C1349.65 203.202 1338.61 196.252 1327.37 189.608L1322.28 198.217C1333.36 204.765 1344.24 211.616 1354.91 218.757L1360.47 210.448ZM1293.16 170.658C1281.6 164.675 1269.85 159.005 1257.93 153.661L1253.84 162.787C1265.59 168.054 1277.17 173.642 1288.56 179.539L1293.16 170.658ZM1221.79 138.676C1209.64 134.035 1197.33 129.725 1184.86 125.755L1181.83 135.283C1194.11 139.196 1206.25 143.444 1218.22 148.018L1221.79 138.676ZM1147.26 114.94C1134.68 111.705 1121.97 108.812 1109.13 106.272L1107.19 116.082C1119.84 118.585 1132.37 121.436 1144.77 124.624L1147.26 114.94ZM1070.57 99.7656C1057.72 97.9677 1044.76 96.5199 1031.7 95.4321L1030.87 105.398C1043.75 106.47 1056.52 107.897 1069.18 109.669L1070.57 99.7656ZM992.658 93.2704C986.144 93.0905 979.609 93 973.052 93V103C979.517 103 985.96 103.089 992.382 103.267L992.658 93.2704ZM973.052 93C966.495 93 959.959 93.0905 953.446 93.2704L953.722 103.267C960.143 103.089 966.587 103 973.052 103V93ZM914.4 95.4322C901.34 96.52 888.382 97.9677 875.536 99.7656L876.922 109.669C889.584 107.897 902.356 106.47 915.23 105.398L914.4 95.4322ZM836.977 106.272C824.136 108.812 811.422 111.705 798.846 114.94L801.337 124.624C813.732 121.436 826.262 118.585 838.917 116.082L836.977 106.272ZM761.24 125.755C748.774 129.725 736.461 134.035 724.311 138.676L727.879 148.018C739.854 143.444 751.989 139.196 764.274 135.283L761.24 125.755ZM688.176 153.661C676.251 159.006 664.504 164.675 652.946 170.658L657.543 179.539C668.935 173.642 680.513 168.054 692.266 162.787L688.176 153.661ZM618.731 189.608C607.492 196.252 596.455 203.202 585.633 210.448L591.197 218.757C601.864 211.616 612.742 204.765 623.82 198.217L618.731 189.608ZM553.752 233.109C543.331 240.963 533.138 249.103 523.184 257.517L529.64 265.154C539.452 256.86 549.499 248.837 559.771 241.095L553.752 233.109ZM494.028 283.59C484.554 292.55 475.331 301.773 466.371 311.248L473.636 318.119C482.468 308.78 491.56 299.688 500.899 290.856L494.028 283.59ZM440.297 340.404C431.883 350.358 423.744 360.551 415.889 370.971L423.875 376.99C431.617 366.719 439.641 356.671 447.934 346.86L440.297 340.404ZM393.228 402.853C385.983 413.675 379.033 424.711 372.389 435.95L380.997 441.039C387.546 429.961 394.396 419.083 401.538 408.416L393.228 402.853ZM353.438 470.166C347.455 481.724 341.786 493.471 336.442 505.395L345.567 509.485C350.834 497.733 356.422 486.155 362.319 474.763L353.438 470.166ZM321.457 541.531C316.816 553.681 312.505 565.994 308.535 578.459L318.064 581.494C321.976 569.209 326.225 557.073 330.799 545.099L321.457 541.531ZM297.72 616.065C294.485 628.642 291.592 641.356 289.052 654.196L298.862 656.137C301.366 643.482 304.217 630.951 307.405 618.556L297.72 616.065ZM282.546 692.756C280.748 705.602 279.3 718.56 278.213 731.62L288.178 732.45C289.25 719.576 290.677 706.803 292.45 694.142L282.546 692.756ZM276.051 770.666C275.871 777.179 275.78 783.715 275.78 790.271H285.78C285.78 783.807 285.87 777.363 286.047 770.942L276.051 770.666ZM284.433 793.686C284.309 793.819 284.447 793.63 285.252 793.236C285.993 792.874 287.054 792.456 288.492 792C291.366 791.088 295.358 790.144 300.482 789.187L298.645 779.357C293.342 780.348 288.9 781.38 285.468 782.468C283.752 783.013 282.193 783.601 280.862 784.252C279.595 784.871 278.21 785.7 277.128 786.857L284.433 793.686ZM339.811 783.886C351.525 782.657 364.824 781.456 379.545 780.288L378.754 770.319C363.972 771.492 350.586 772.701 338.767 773.941L339.811 783.886ZM419.557 777.414C432.174 776.589 445.493 775.784 459.447 775L458.886 765.016C444.905 765.801 431.556 766.608 418.905 767.435L419.557 777.414ZM499.488 772.895C512.4 772.258 525.731 771.638 539.438 771.036L539 761.045C525.275 761.648 511.926 762.269 498.995 762.907L499.488 772.895ZM579.532 769.367C592.62 768.85 605.986 768.349 619.598 767.864L619.242 757.87C605.618 758.356 592.239 758.857 579.137 759.374L579.532 769.367ZM659.585 766.508C672.751 766.083 686.104 765.673 699.619 765.278L699.327 755.282C685.802 755.677 672.439 756.088 659.262 756.513L659.585 766.508ZM739.677 764.165C752.917 763.815 766.281 763.48 779.746 763.16L779.508 753.163C766.035 753.483 752.662 753.818 739.413 754.168L739.677 764.165ZM819.818 762.259C833.108 761.976 846.472 761.708 859.889 761.456L859.7 751.458C846.276 751.71 832.904 751.978 819.605 752.261L819.818 762.259ZM899.956 760.749C913.287 760.53 926.648 760.326 940.017 760.138L939.876 750.139C926.499 750.327 913.13 750.531 899.792 750.751L899.956 760.749ZM980.08 759.621C993.456 759.465 1006.82 759.325 1020.15 759.201L1020.06 749.201C1006.72 749.325 993.347 749.466 979.963 749.622L980.08 759.621ZM1060.22 758.878C1073.65 758.787 1087.01 758.713 1100.3 758.658L1100.26 748.658C1086.96 748.713 1073.59 748.787 1060.16 748.878L1060.22 758.878ZM1140.38 758.544C1147.06 758.534 1153.72 758.53 1160.35 758.53V748.53C1153.71 748.53 1147.05 748.534 1140.36 748.544L1140.38 758.544ZM1160.35 758.53C1167.58 758.53 1174.72 758.552 1181.77 758.595L1181.83 748.595C1174.76 748.552 1167.6 748.53 1160.35 748.53V758.53ZM1224.17 759.123C1238.76 759.399 1252.91 759.766 1266.65 760.214L1266.98 750.219C1253.19 749.77 1238.99 749.402 1224.36 749.125L1224.17 759.123ZM1309.16 761.908C1323.79 762.601 1337.88 763.383 1351.46 764.239L1352.09 754.259C1338.46 753.399 1324.31 752.614 1309.63 751.92L1309.16 761.908ZM1393.88 767.272C1408.69 768.46 1422.79 769.728 1436.2 771.052L1437.18 761.1C1423.71 759.771 1409.55 758.497 1394.68 757.304L1393.88 767.272ZM1478.4 775.63C1493.45 777.415 1507.45 779.241 1520.44 781.055L1521.82 771.151C1508.77 769.328 1494.7 767.493 1479.58 765.7L1478.4 775.63ZM1562.46 787.365C1578.46 789.931 1592.34 792.33 1604.28 794.389L1605.98 784.535C1594.05 782.476 1580.11 780.067 1564.05 777.491L1562.46 787.365ZM1646.75 800.882C1653.04 801.446 1658.42 801.485 1662.38 800.312C1664.45 799.698 1666.54 798.637 1668.1 796.767C1669.71 794.826 1670.32 792.527 1670.32 790.271H1660.32C1660.32 790.696 1660.24 790.582 1660.41 790.375C1660.52 790.238 1660.43 790.46 1659.54 790.724C1657.57 791.307 1653.88 791.481 1647.64 790.922L1646.75 800.882ZM280.78 790.271H270.78V815.613L288.086 797.1L280.78 790.271ZM1675.32 790.271C1675.32 783.669 1675.23 777.087 1675.05 770.527L1655.06 771.079C1655.23 777.455 1655.32 783.853 1655.32 790.271H1675.32ZM1672.87 731.205C1671.78 718.051 1670.32 705.001 1668.51 692.062L1648.7 694.834C1650.46 707.404 1651.88 720.084 1652.94 732.865L1672.87 731.205ZM1661.96 653.226C1659.4 640.293 1656.48 627.487 1653.23 614.819L1633.86 619.802C1637.02 632.106 1639.85 644.544 1642.34 657.107L1661.96 653.226ZM1642.33 576.942C1638.33 564.386 1633.99 551.984 1629.32 539.746L1610.63 546.883C1615.17 558.77 1619.39 570.816 1623.28 583.011L1642.33 576.942ZM1614.22 503.35C1608.84 491.34 1603.13 479.508 1597.11 467.867L1579.34 477.061C1585.2 488.37 1590.75 499.863 1595.97 511.53L1614.22 503.35ZM1578.02 433.406C1571.33 422.086 1564.33 410.971 1557.03 400.071L1540.41 411.198C1547.5 421.787 1554.3 432.586 1560.8 443.583L1578.02 433.406ZM1534.21 367.962C1526.3 357.467 1518.1 347.201 1509.63 337.176L1494.35 350.087C1502.58 359.828 1510.55 369.803 1518.24 380L1534.21 367.962ZM1483.37 307.812C1474.34 298.27 1465.05 288.981 1455.51 279.957L1441.77 294.488C1451.04 303.257 1460.07 312.283 1468.84 321.554L1483.37 307.812ZM1426.15 253.698C1416.12 245.224 1405.86 237.026 1395.36 229.116L1383.32 245.087C1393.52 252.773 1403.5 260.739 1413.24 268.972L1426.15 253.698ZM1363.25 206.293C1352.35 198.996 1341.24 191.996 1329.92 185.304L1319.74 202.521C1330.74 209.022 1341.54 215.822 1352.13 222.912L1363.25 206.293ZM1295.46 166.218C1283.81 160.191 1271.98 154.481 1259.97 149.099L1251.79 167.349C1263.46 172.578 1274.95 178.125 1286.26 183.979L1295.46 166.218ZM1223.58 134.005C1211.34 129.331 1198.94 124.989 1186.38 120.99L1180.31 140.047C1192.51 143.931 1204.55 148.149 1216.44 152.689L1223.58 134.005ZM1148.5 110.097C1135.84 106.839 1123.03 103.925 1110.1 101.367L1106.22 120.987C1118.78 123.472 1131.22 126.302 1143.52 129.467L1148.5 110.097ZM1071.26 94.8138C1058.32 93.0031 1045.27 91.5449 1032.12 90.4494L1030.46 110.38C1043.24 111.445 1055.92 112.862 1068.49 114.621L1071.26 94.8138ZM992.796 88.2723C986.236 88.0911 979.655 88 973.052 88V108C979.471 108 985.868 108.089 992.244 108.265L992.796 88.2723ZM973.052 88C966.449 88 959.867 88.0912 953.308 88.2723L953.86 108.265C960.236 108.089 966.633 108 973.052 108V88ZM913.985 90.4494C900.832 91.545 887.781 93.0031 874.843 94.8138L877.615 114.621C890.184 112.862 902.864 111.445 915.645 110.38L913.985 90.4494ZM836.006 101.367C823.073 103.925 810.268 106.839 797.6 110.097L802.582 129.467C814.886 126.302 827.325 123.472 839.888 120.987L836.006 101.367ZM759.723 120.99C747.167 124.989 734.765 129.331 722.527 134.006L729.663 152.689C741.55 148.149 753.597 143.931 765.792 140.047L759.723 120.99ZM686.131 149.099C674.12 154.481 662.289 160.191 650.648 166.218L659.842 183.979C671.151 178.125 682.644 172.578 694.31 167.349L686.131 149.099ZM616.186 185.304C604.867 191.996 593.751 198.996 582.852 206.293L593.978 222.912C604.568 215.823 615.367 209.022 626.364 202.521L616.186 185.304ZM550.742 229.116C540.247 237.027 529.982 245.224 519.957 253.698L532.868 268.973C542.609 260.739 552.583 252.773 562.78 245.087L550.742 229.116ZM490.592 279.957C481.051 288.981 471.762 298.27 462.738 307.812L477.269 321.554C486.037 312.283 495.063 303.257 504.335 294.488L490.592 279.957ZM436.479 337.176C428.005 347.201 419.807 357.467 411.897 367.962L427.868 380C435.554 369.803 443.519 359.828 451.753 350.087L436.479 337.176ZM389.073 400.071C381.776 410.971 374.776 422.086 368.085 433.406L385.301 443.584C391.802 432.586 398.603 421.787 405.693 411.198L389.073 400.071ZM348.998 467.867C342.972 479.508 337.262 491.34 331.879 503.35L350.13 511.53C355.359 499.863 360.905 488.37 366.759 477.062L348.998 467.867ZM316.786 539.747C312.112 551.984 307.769 564.387 303.771 576.942L322.828 583.011C326.712 570.816 330.929 558.77 335.469 546.883L316.786 539.747ZM292.878 614.82C289.619 627.487 286.706 640.293 284.147 653.226L303.767 657.107C306.252 644.544 309.083 632.106 312.247 619.802L292.878 614.82ZM277.594 692.063C275.784 705.001 274.325 718.052 273.23 731.205L293.161 732.865C294.225 720.084 295.642 707.404 297.401 694.835L277.594 692.063ZM271.053 770.528C270.872 777.087 270.78 783.669 270.78 790.271H290.78C290.78 783.853 290.869 777.455 291.045 771.08L271.053 770.528ZM288.086 797.1C287.358 797.879 286.873 798.009 287.447 797.729C287.893 797.511 288.705 797.178 290.004 796.766C292.6 795.943 296.367 795.042 301.4 794.102L297.727 774.442C292.334 775.45 287.666 776.525 283.956 777.703C282.102 778.291 280.293 778.965 278.666 779.759C277.169 780.491 275.16 781.64 273.475 783.443L288.086 797.1ZM340.332 788.859C351.995 787.635 365.25 786.438 379.941 785.272L378.358 765.335C363.545 766.511 350.116 767.723 338.245 768.968L340.332 788.859ZM419.884 782.403C432.483 781.579 445.787 780.775 459.727 779.992L458.606 760.024C444.612 760.81 431.246 761.617 418.579 762.446L419.884 782.403ZM499.734 777.889C512.636 777.252 525.958 776.633 539.658 776.031L538.78 756.05C525.048 756.654 511.69 757.275 498.749 757.913L499.734 777.889ZM579.729 774.363C592.811 773.846 606.17 773.345 619.776 772.861L619.064 752.873C605.434 753.359 592.049 753.861 578.94 754.378L579.729 774.363ZM659.746 771.505C672.907 771.08 686.255 770.67 699.765 770.276L699.181 750.284C685.651 750.68 672.283 751.09 659.101 751.515L659.746 771.505ZM739.809 769.163C753.044 768.814 766.404 768.479 779.865 768.159L779.39 748.164C765.912 748.485 752.534 748.82 739.281 749.17L739.809 769.163ZM819.924 767.257C833.21 766.975 846.57 766.707 859.983 766.455L859.606 746.458C846.178 746.711 832.802 746.979 819.499 747.262L819.924 767.257ZM900.038 765.749C913.365 765.53 926.722 765.326 940.088 765.138L939.806 745.14C926.425 745.328 913.052 745.532 899.709 745.751L900.038 765.749ZM980.139 764.621C993.511 764.465 1006.87 764.324 1020.2 764.201L1020.01 744.201C1006.67 744.325 993.292 744.466 979.905 744.623L980.139 764.621ZM1060.26 763.878C1073.68 763.787 1087.04 763.713 1100.32 763.657L1100.24 743.658C1086.94 743.713 1073.56 743.787 1060.12 743.879L1060.26 763.878ZM1140.39 763.544C1147.07 763.534 1153.72 763.53 1160.35 763.53V743.53C1153.71 743.53 1147.05 743.534 1140.36 743.544L1140.39 763.544ZM1160.35 763.53C1167.57 763.53 1174.7 763.552 1181.74 763.595L1181.86 743.595C1174.78 743.552 1167.61 743.53 1160.35 743.53V763.53ZM1224.07 764.122C1238.64 764.398 1252.77 764.765 1266.49 765.212L1267.14 745.222C1253.33 744.772 1239.11 744.403 1224.45 744.126L1224.07 764.122ZM1308.92 766.903C1323.52 767.594 1337.59 768.374 1351.14 769.229L1352.4 749.269C1338.75 748.407 1324.57 747.621 1309.86 746.925L1308.92 766.903ZM1393.48 772.256C1408.26 773.441 1422.33 774.707 1435.71 776.027L1437.67 756.124C1424.17 754.792 1409.98 753.515 1395.08 752.32L1393.48 772.256ZM1477.81 780.596C1492.83 782.376 1506.79 784.197 1519.75 786.007L1522.51 766.199C1509.42 764.372 1495.32 762.532 1480.17 760.735L1477.81 780.596ZM1561.67 792.302C1577.64 794.862 1591.49 797.256 1603.43 799.317L1606.83 779.608C1594.9 777.549 1580.94 775.136 1564.84 772.554L1561.67 792.302ZM1646.3 805.862C1652.62 806.428 1658.84 806.574 1663.8 805.107C1666.47 804.317 1669.55 802.837 1671.94 799.963C1674.45 796.948 1675.32 793.443 1675.32 790.271H1655.32C1655.32 789.78 1655.5 788.46 1656.56 787.178C1657.51 786.038 1658.42 785.841 1658.12 785.929C1657.8 786.023 1656.9 786.208 1655.07 786.253C1653.3 786.296 1651 786.203 1648.09 785.942L1646.3 805.862Z" fill="#FFE16A" mask="url(#path-2-inside-1_7_108)"/>
<path d="M1625 788.927C1562.27 842.248 1383.49 850.761 1004.42 872.269C788.446 856.138 296.463 840.456 322.899 788.927C322.899 429.61 614.384 138.327 973.948 138.327C1333.51 138.327 1625 429.61 1625 788.927Z" fill="#FFF5BF"/>
<rect x="258" y="648.752" width="1431" height="142.345" rx="45" fill="#F9FFEB" stroke="#FFE16A" stroke-width="10"/>
<circle cx="342.166" cy="719.476" r="20.1632" fill="#FFE16A"/>
<circle cx="398.623" cy="719.476" r="20.1632" fill="#FFE16A"/>
<path d="M528 582H664V647H528V582Z" fill="#F9FFEB" stroke="#FFE16A" stroke-width="10"/>
<rect x="487" y="502" width="214" height="78" rx="15" fill="#F9FFEB" stroke="#FFE16A" stroke-width="10"/>
<circle cx="649.163" cy="541.163" r="20.1632" fill="#FFE16A"/>
<path d="M523 541H608" stroke="#FFE16A" stroke-width="20" stroke-linecap="round"/>
<rect x="487" y="340" width="214" height="78" rx="15" fill="#F9FFEB" stroke="#FFE16A" stroke-width="10"/>
<circle cx="649.163" cy="379.163" r="20.1632" fill="#FFE16A"/>
<path d="M523 379H608" stroke="#FFE16A" stroke-width="20" stroke-linecap="round"/>
<rect x="487" y="422" width="214" height="78" rx="15" fill="#F9FFEB" stroke="#FFE16A" stroke-width="10"/>
<circle cx="523.163" cy="461.163" r="20.1632" fill="#FFE16A"/>
<path d="M579 461H664" stroke="#FFE16A" stroke-width="20" stroke-linecap="round"/>
<path d="M1146.32 570.311H1304.83V646.874H1146.32V570.311Z" fill="#F9FFEB" stroke="#FFE16A" stroke-width="10"/>
<rect x="1099" y="477.977" width="248.536" height="91.5676" rx="15" fill="#F9FFEB" stroke="#FFE16A" stroke-width="10"/>
<circle cx="1286.94" cy="523.949" r="23.272" fill="#FFE16A"/>
<path d="M1141.32 523.76H1239.43" stroke="#FFE16A" stroke-width="20" stroke-linecap="round"/>
<rect x="1099" y="291" width="248.536" height="91.5676" rx="15" fill="#F9FFEB" stroke="#FFE16A" stroke-width="10"/>
<circle cx="1286.94" cy="336.972" r="23.272" fill="#FFE16A"/>
<path d="M1141.32 336.784H1239.43" stroke="#FFE16A" stroke-width="20" stroke-linecap="round"/>
<rect x="1099" y="385.643" width="248.536" height="91.5676" rx="15" fill="#F9FFEB" stroke="#FFE16A" stroke-width="10"/>
<circle cx="1141.51" cy="431.615" r="23.272" fill="#FFE16A"/>
<path d="M1205.96 431.426H1304.06" stroke="#FFE16A" stroke-width="20" stroke-linecap="round"/>
<path d="M811.717 563.254H985.878V647.857H811.717V563.254Z" fill="#F9FFEB" stroke="#FFE16A" stroke-width="10"/>
<rect x="760" y="462.343" width="272.549" height="101.001" rx="15" fill="#F9FFEB" stroke="#FFE16A" stroke-width="10"/>
<circle cx="965.856" cy="513.05" r="25.4335" fill="#FFE16A"/>
<path d="M806.717 512.844H913.934" stroke="#FFE16A" stroke-width="20" stroke-linecap="round"/>
<rect x="760" y="258" width="272.549" height="101.001" rx="15" fill="#F9FFEB" stroke="#FFE16A" stroke-width="10"/>
<circle cx="965.856" cy="308.707" r="25.4335" fill="#FFE16A"/>
<path d="M806.717 308.501H913.934" stroke="#FFE16A" stroke-width="20" stroke-linecap="round"/>
<rect x="760" y="361.433" width="272.549" height="101.001" rx="15" fill="#F9FFEB" stroke="#FFE16A" stroke-width="10"/>
<circle cx="806.922" cy="412.14" r="25.4335" fill="#FFE16A"/>
<path d="M877.354 411.934H984.571" stroke="#FFE16A" stroke-width="20" stroke-linecap="round"/>
<path d="M821.906 958.19C774.966 1039.71 658.484 1042.92 607.137 964.093L515.81 823.896C462.061 741.385 519.487 631.875 617.923 629.169L792.74 624.365C891.176 621.659 954.531 727.85 905.395 813.188L821.906 958.19Z" fill="#F9FFEB"/>
<path d="M713.331 607L717.73 600.925C715.192 599.087 711.779 599.021 709.171 600.76L713.331 607ZM523 684.77L521.429 677.436L515.5 678.707V684.77H523ZM523 773.796H515.5V774.743L515.736 775.661L523 773.796ZM542.442 849.519L535.178 851.384L535.377 852.158L535.734 852.873L542.442 849.519ZM568.025 900.684L561.316 904.038L561.72 904.845L562.304 905.534L568.025 900.684ZM607.933 947.755L602.212 952.605L602.568 953.025L602.982 953.389L607.933 947.755ZM641.701 977.43L636.75 983.064L637.19 983.45L637.685 983.764L641.701 977.43ZM683.656 1004.04L679.64 1010.37L680.061 1010.64L680.513 1010.85L683.656 1004.04ZM710.262 1016.32L707.119 1023.12L710.286 1024.59L713.445 1023.11L710.262 1016.32ZM743.007 1000.97L746.19 1007.76L746.672 1007.53L747.117 1007.24L743.007 1000.97ZM772.682 981.523L776.792 987.797L776.992 987.666L777.182 987.523L772.682 981.523ZM797.241 963.104L801.741 969.104L802.209 968.753L802.617 968.334L797.241 963.104ZM834.079 925.242L839.455 930.473L839.925 929.989L840.301 929.43L834.079 925.242ZM869.894 872.032L876.116 876.219L876.71 875.338L877.035 874.327L869.894 872.032ZM888.314 814.727L895.454 817.022L895.584 816.616L895.668 816.198L888.314 814.727ZM896.5 773.796L903.854 775.267L904 774.539V773.796H896.5ZM896.5 680.677H904V674.268L897.67 673.268L896.5 680.677ZM857.615 674.537L855.431 681.712L855.93 681.864L856.445 681.945L857.615 674.537ZM810.544 660.211L807.726 667.162L808.038 667.288L808.36 667.386L810.544 660.211ZM772.682 644.862L769.059 651.428L769.45 651.644L769.864 651.812L772.682 644.862ZM743.007 628.489L738.608 634.564L738.981 634.834L739.384 635.056L743.007 628.489ZM594.63 669.421L596.202 676.754L596.531 676.683L596.853 676.584L594.63 669.421ZM651.934 647.932L654.98 654.785L655.563 654.526L656.094 654.172L651.934 647.932ZM624.305 660.211L626.528 667.374L626.949 667.243L627.352 667.065L624.305 660.211ZM515.5 684.77V773.796H530.5V684.77H515.5ZM515.736 775.661L535.178 851.384L549.707 847.654L530.264 771.931L515.736 775.661ZM535.734 852.873L561.316 904.038L574.733 897.329L549.151 846.165L535.734 852.873ZM562.304 905.534L602.212 952.605L613.654 942.905L573.745 895.833L562.304 905.534ZM602.982 953.389L636.75 983.064L646.652 971.796L612.884 942.121L602.982 953.389ZM637.685 983.764L679.64 1010.37L687.673 997.702L645.718 971.096L637.685 983.764ZM680.513 1010.85L707.119 1023.12L713.405 1009.51L686.799 997.226L680.513 1010.85ZM713.445 1023.11L746.19 1007.76L739.824 994.175L707.078 1009.52L713.445 1023.11ZM747.117 1007.24L776.792 987.797L768.572 975.25L738.897 994.692L747.117 1007.24ZM777.182 987.523L801.741 969.104L792.741 957.104L768.182 975.523L777.182 987.523ZM802.617 968.334L839.455 930.473L828.704 920.012L791.866 957.874L802.617 968.334ZM840.301 929.43L876.116 876.219L863.673 867.844L827.858 921.055L840.301 929.43ZM877.035 874.327L895.454 817.022L881.173 812.432L862.754 869.736L877.035 874.327ZM895.668 816.198L903.854 775.267L889.146 772.325L880.959 813.257L895.668 816.198ZM904 773.796V731.841H889V773.796H904ZM904 731.841V689.886H889V731.841H904ZM904 689.886V680.677H889V689.886H904ZM897.67 673.268L858.785 667.129L856.445 681.945L895.33 688.085L897.67 673.268ZM859.799 667.362L812.728 653.036L808.36 667.386L855.431 681.712L859.799 667.362ZM813.362 653.26L775.5 637.911L769.864 651.812L807.726 667.162L813.362 653.26ZM776.305 638.295L746.63 621.922L739.384 635.056L769.059 651.428L776.305 638.295ZM747.406 622.414L717.73 600.925L708.933 613.075L738.608 634.564L747.406 622.414ZM593.059 662.087L521.429 677.436L524.571 692.103L596.202 676.754L593.059 662.087ZM709.171 600.76L647.774 641.691L656.094 654.172L717.492 613.24L709.171 600.76ZM648.888 641.078L621.259 653.357L627.352 667.065L654.98 654.785L648.888 641.078ZM622.082 653.048L592.407 662.258L596.853 676.584L626.528 667.374L622.082 653.048Z" fill="#FFE16A"/>
<path d="M573.141 762.54L571.094 723.655L611.003 712.399L640.678 703.189L667.284 688.863L690.819 674.537L712.308 659.188L743.007 679.653L777.799 697.049L810.544 710.352L847.382 723.655L844.312 772.773L837.149 807.564L825.893 848.496L804.404 885.334L775.752 916.033L751.193 940.592L712.308 965.151L671.377 938.545L640.678 910.916L613.049 880.218L590.537 837.24L581.327 803.471L573.141 762.54Z" stroke="#FFE16A" stroke-width="15" stroke-linecap="round"/>
<circle cx="709.238" cy="761.516" r="55.374" fill="#FFE16A" stroke="#FFE16A" stroke-width="10"/>
<ellipse cx="711.285" cy="877.148" rx="89.026" ry="51.1644" fill="#FFE16A"/>
<ellipse cx="712.308" cy="903.753" rx="63.4438" ry="51.1644" fill="#FFE16A"/>
</svg>
