<svg width="1920" height="1080" viewBox="0 0 1920 1080" fill="none" xmlns="http://www.w3.org/2000/svg">
<path d="M0 30C0 13.4315 13.4315 0 30 0H1890C1906.57 0 1920 13.4315 1920 30V1080H0V30Z" fill="#EBFFEF"/>
<ellipse cx="584.645" cy="637.84" rx="134.03" ry="166.841" transform="rotate(-19.8192 584.645 637.84)" fill="#ADFFE5" fill-opacity="0.8"/>
<ellipse cx="996.78" cy="355.751" rx="134.03" ry="166.841" transform="rotate(-151.114 996.78 355.751)" fill="#ADFFE5" fill-opacity="0.8"/>
<ellipse cx="1058.05" cy="320.216" rx="134.03" ry="166.841" transform="rotate(-82.4425 1058.05 320.216)" fill="#ADFFE5" fill-opacity="0.8"/>
<ellipse cx="1088.71" cy="332.075" rx="134.03" ry="166.841" transform="rotate(-54.4123 1088.71 332.075)" fill="#ADFFE5" fill-opacity="0.8"/>
<ellipse cx="1116.31" cy="332.075" rx="134.03" ry="166.841" transform="rotate(-54.4123 1116.31 332.075)" fill="#ADFFE5" fill-opacity="0.8"/>
<ellipse cx="1146.58" cy="346.994" rx="139.568" ry="166.841" transform="rotate(-27.3315 1146.58 346.994)" fill="#ADFFE5" fill-opacity="0.8"/>
<ellipse cx="1316.09" cy="527.502" rx="139.568" ry="166.841" transform="rotate(-27.3315 1316.09 527.502)" fill="#ADFFE5" fill-opacity="0.8"/>
<ellipse cx="1303.79" cy="623.067" rx="139.568" ry="166.841" transform="rotate(-136.947 1303.79 623.067)" fill="#ADFFE5" fill-opacity="0.8"/>
<ellipse cx="1280.14" cy="640.806" rx="139.568" ry="166.841" transform="rotate(-136.947 1280.14 640.806)" fill="#ADFFE5" fill-opacity="0.8"/>
<ellipse cx="1316.09" cy="559.038" rx="139.568" ry="166.841" transform="rotate(-27.3315 1316.09 559.038)" fill="#ADFFE5" fill-opacity="0.8"/>
<ellipse cx="746.27" cy="474.244" rx="134.03" ry="166.841" transform="rotate(-19.8192 746.27 474.244)" fill="#ADFFE5" fill-opacity="0.8"/>
<path d="M1255.44 804.022V809.022H1255.9L1256.35 808.94L1255.44 804.022ZM1303.73 795.152L1304.64 800.07L1305.22 799.964L1305.76 799.726L1303.73 795.152ZM1346.11 776.427L1348.13 781.001L1348.5 780.838L1348.84 780.617L1346.11 776.427ZM1388.49 748.833L1391.22 753.023L1391.49 752.843L1391.74 752.629L1388.49 748.833ZM1422.98 719.267L1426.24 723.064L1426.65 722.706L1426.98 722.267L1422.98 719.267ZM1452.55 679.847L1456.55 682.847L1456.79 682.522L1456.98 682.163L1452.55 679.847ZM1475.21 636.484L1479.65 638.8L1479.93 638.25L1480.08 637.647L1475.21 636.484ZM1486.06 591.15L1490.92 592.313L1491.02 591.896L1491.05 591.468L1486.06 591.15ZM1489.01 544.831L1494 545.149L1494.06 544.287L1493.82 543.457L1489.01 544.831ZM1475.21 496.54L1480.02 495.167L1480 495.095L1479.98 495.024L1475.21 496.54ZM1461.42 453.177L1466.18 451.661L1465.96 450.972L1465.56 450.373L1461.42 453.177ZM1440.72 422.626L1444.86 419.822L1444.67 419.547L1444.45 419.298L1440.72 422.626ZM1408.2 386.162L1411.93 382.834L1411.84 382.728L1411.73 382.627L1408.2 386.162ZM1388.49 366.452L1392.02 362.916L1391.49 362.385L1390.83 362.033L1388.49 366.452ZM1354.98 348.713L1357.32 344.294L1356.5 343.859L1355.58 343.748L1354.98 348.713ZM1330.34 345.756L1330.94 340.792L1330.64 340.756H1330.34V345.756ZM1303.73 345.756L1298.85 346.841C1299.36 349.128 1301.39 350.756 1303.73 350.756V345.756ZM1293.88 301.408L1298.76 300.323L1298.72 300.145L1298.67 299.971L1293.88 301.408ZM1285.01 271.842L1289.8 270.405L1289.65 269.919L1289.41 269.472L1285.01 271.842ZM1271.21 246.219L1275.61 243.848L1275.39 243.432L1275.09 243.066L1271.21 246.219ZM1245.59 214.682L1249.47 211.529L1249.31 211.329L1249.12 211.147L1245.59 214.682ZM1220.95 190.044L1224.49 186.509L1224.33 186.348L1224.15 186.203L1220.95 190.044ZM1197.3 170.334L1200.5 166.493L1200.28 166.31L1200.04 166.154L1197.3 170.334ZM1165.76 149.638L1168.51 145.458L1168.03 145.144L1167.49 144.946L1165.76 149.638ZM1128.31 135.841L1130.04 131.149L1129.81 131.065L1129.58 131.004L1128.31 135.841ZM1086.92 125L1088.19 120.163L1087.56 120H1086.92V125ZM1045.53 125V120H1045.37L1045.21 120.01L1045.53 125ZM1014.98 126.971L1014.66 121.981L1014.35 122.001L1014.05 122.058L1014.98 126.971ZM978.513 133.87L977.584 128.957L977.229 129.024L976.888 129.141L978.513 133.87ZM946.977 144.71L945.351 139.982L944.866 140.149L944.424 140.411L946.977 144.71ZM915.44 163.435L912.888 159.136L912.607 159.302L912.351 159.504L915.44 163.435ZM887.846 185.117L884.757 181.185L884.522 181.37L884.31 181.581L887.846 185.117ZM870.107 202.856L866.571 199.32L866.403 199.488L866.252 199.672L870.107 202.856ZM851.382 225.523L847.527 222.338L847.4 222.492L847.286 222.656L851.382 225.523ZM830.686 255.088L826.59 252.221L826.533 252.302L826.48 252.385L830.686 255.088ZM812.946 282.683L811.274 287.395C813.462 288.171 815.897 287.34 817.152 285.387L812.946 282.683ZM782.395 271.842L784.067 267.13L783.99 267.103L783.911 267.078L782.395 271.842ZM736.076 259.03L737.243 254.169L736.668 254.03H736.076V259.03ZM710.453 259.03V254.03H710.06L709.673 254.092L710.453 259.03ZM691.728 261.987L690.948 257.048L690.393 257.136L689.871 257.345L691.728 261.987ZM667.09 271.842L665.233 267.2L665.04 267.277L664.854 267.37L667.09 271.842ZM645.408 282.683L643.172 278.211L642.783 278.406L642.432 278.665L645.408 282.683ZM618.799 302.393L615.823 298.375L615.571 298.563L615.343 298.78L618.799 302.393ZM596.133 324.075L592.676 320.461L592.353 320.771L592.089 321.134L596.133 324.075ZM580.364 345.756L576.321 342.815L576.105 343.111L575.935 343.436L580.364 345.756ZM569.524 366.452L565.094 364.132L564.828 364.641L564.684 365.197L569.524 366.452ZM562.625 393.061L557.785 391.806L557.625 392.423V393.061H562.625ZM562.625 422.626V427.626C565.386 427.626 567.625 425.388 567.625 422.626H562.625ZM535.03 422.626V417.626C534.566 417.626 534.104 417.691 533.657 417.819L535.03 422.626ZM500.537 432.482L499.164 427.674C498.801 427.777 498.452 427.922 498.122 428.104L500.537 432.482ZM471.957 448.25L469.542 443.872L469.11 444.11L468.733 444.428L471.957 448.25ZM440.421 474.859L437.196 471.037L436.762 471.404L436.421 471.859L440.421 474.859ZM422.681 498.511L418.681 495.511L418.437 495.837L418.248 496.198L422.681 498.511ZM410.855 521.178L406.422 518.865L406.132 519.422L405.988 520.033L410.855 521.178ZM402.971 554.686L398.104 553.541L398.014 553.924L397.985 554.316L402.971 554.686ZM401 581.295L396.014 580.925L396 581.11V581.295H401ZM401 617.759H396V618.231L396.088 618.695L401 617.759ZM410.855 659.151L406.048 660.524L406.135 660.829L406.259 661.12L410.855 659.151ZM419.725 679.847L415.129 681.816L415.38 682.401L415.768 682.904L419.725 679.847ZM436.479 701.528L432.522 704.585L432.593 704.677L432.669 704.766L436.479 701.528ZM453.232 721.238L449.423 724.477L449.521 724.592L449.626 724.701L453.232 721.238ZM476.885 745.876L473.278 749.339L473.548 749.621L473.859 749.857L476.885 745.876ZM501.523 764.601L498.497 768.582L498.679 768.72L498.873 768.841L501.523 764.601ZM525.175 779.384L522.525 783.624L522.727 783.75L522.939 783.856L525.175 779.384ZM542.915 788.254L540.679 792.726L540.963 792.868L541.263 792.973L542.915 788.254ZM562.625 795.152L564.289 790.437L564.277 790.433L562.625 795.152ZM579.379 801.065L577.715 805.78C578.002 805.882 578.298 805.957 578.599 806.004L579.379 801.065ZM598.104 804.022L597.324 808.961L597.711 809.022H598.104V804.022ZM404.942 638.455L400.03 639.39L400.073 639.612L400.134 639.828L404.942 638.455ZM760.714 264.944L762.23 260.179L762.057 260.124L761.881 260.082L760.714 264.944ZM611.901 809.022H1255.44V799.022H611.901V809.022ZM1256.35 808.94L1304.64 800.07L1302.83 790.234L1254.54 799.104L1256.35 808.94ZM1305.76 799.726L1348.13 781.001L1344.09 771.854L1301.71 790.579L1305.76 799.726ZM1348.84 780.617L1391.22 753.023L1385.76 744.643L1343.38 772.237L1348.84 780.617ZM1391.74 752.629L1426.24 723.064L1419.73 715.471L1385.23 745.037L1391.74 752.629ZM1426.98 722.267L1456.55 682.847L1448.55 676.847L1418.98 716.267L1426.98 722.267ZM1456.98 682.163L1479.65 638.8L1470.78 634.168L1448.12 677.53L1456.98 682.163ZM1480.08 637.647L1490.92 592.313L1481.19 589.987L1470.35 635.321L1480.08 637.647ZM1491.05 591.468L1494 545.149L1484.02 544.512L1481.07 590.831L1491.05 591.468ZM1493.82 543.457L1480.02 495.167L1470.41 497.914L1484.2 546.204L1493.82 543.457ZM1479.98 495.024L1466.18 451.661L1456.65 454.693L1470.45 498.056L1479.98 495.024ZM1465.56 450.373L1444.86 419.822L1436.58 425.431L1457.28 455.982L1465.56 450.373ZM1444.45 419.298L1411.93 382.834L1404.47 389.49L1436.99 425.954L1444.45 419.298ZM1411.73 382.627L1392.02 362.916L1384.95 369.987L1404.66 389.698L1411.73 382.627ZM1390.83 362.033L1357.32 344.294L1352.64 353.132L1386.15 370.871L1390.83 362.033ZM1355.58 343.748L1330.94 340.792L1329.75 350.72L1354.39 353.677L1355.58 343.748ZM1330.34 340.756H1303.73V350.756H1330.34V340.756ZM1308.62 344.671L1298.76 300.323L1289 302.492L1298.85 346.841L1308.62 344.671ZM1298.67 299.971L1289.8 270.405L1280.22 273.279L1289.09 302.844L1298.67 299.971ZM1289.41 269.472L1275.61 243.848L1266.81 248.589L1280.61 274.213L1289.41 269.472ZM1275.09 243.066L1249.47 211.529L1241.71 217.835L1267.33 249.372L1275.09 243.066ZM1249.12 211.147L1224.49 186.509L1217.42 193.58L1242.05 218.218L1249.12 211.147ZM1224.15 186.203L1200.5 166.493L1194.1 174.175L1217.75 193.885L1224.15 186.203ZM1200.04 166.154L1168.51 145.458L1163.02 153.818L1194.56 174.514L1200.04 166.154ZM1167.49 144.946L1130.04 131.149L1126.58 140.532L1164.03 154.33L1167.49 144.946ZM1129.58 131.004L1088.19 120.163L1085.65 129.837L1127.05 140.678L1129.58 131.004ZM1086.92 120H1045.53V130H1086.92V120ZM1045.21 120.01L1014.66 121.981L1015.3 131.961L1045.85 129.99L1045.21 120.01ZM1014.05 122.058L977.584 128.957L979.443 138.783L1015.91 131.884L1014.05 122.058ZM976.888 129.141L945.351 139.982L948.602 149.439L980.139 138.598L976.888 129.141ZM944.424 140.411L912.888 159.136L917.993 167.734L949.53 149.01L944.424 140.411ZM912.351 159.504L884.757 181.185L890.935 189.048L918.529 167.367L912.351 159.504ZM884.31 181.581L866.571 199.32L873.642 206.391L891.381 188.652L884.31 181.581ZM866.252 199.672L847.527 222.338L855.236 228.707L873.961 206.04L866.252 199.672ZM847.286 222.656L826.59 252.221L834.782 257.956L855.478 228.39L847.286 222.656ZM826.48 252.385L808.741 279.979L817.152 285.387L834.892 257.792L826.48 252.385ZM814.619 277.971L784.067 267.13L780.723 276.554L811.274 287.395L814.619 277.971ZM736.076 254.03H710.453V264.03H736.076V254.03ZM709.673 254.092L690.948 257.048L692.508 266.926L711.232 263.969L709.673 254.092ZM689.871 257.345L665.233 267.2L668.947 276.485L693.585 266.629L689.871 257.345ZM664.854 267.37L643.172 278.211L647.644 287.155L669.326 276.314L664.854 267.37ZM642.432 278.665L615.823 298.375L621.776 306.411L648.385 286.701L642.432 278.665ZM615.343 298.78L592.676 320.461L599.589 327.688L622.256 306.006L615.343 298.78ZM592.089 321.134L576.321 342.815L584.408 348.697L600.176 327.015L592.089 321.134ZM575.935 343.436L565.094 364.132L573.953 368.772L584.793 348.076L575.935 343.436ZM564.684 365.197L557.785 391.806L567.465 394.316L574.364 367.707L564.684 365.197ZM557.625 393.061V422.626H567.625V393.061H557.625ZM562.625 417.626H535.03V427.626H562.625V417.626ZM533.657 417.819L499.164 427.674L501.911 437.289L536.404 427.434L533.657 417.819ZM498.122 428.104L469.542 443.872L474.373 452.628L502.953 436.859L498.122 428.104ZM468.733 444.428L437.196 471.037L443.645 478.68L475.182 452.071L468.733 444.428ZM436.421 471.859L418.681 495.511L426.681 501.511L444.421 477.859L436.421 471.859ZM418.248 496.198L406.422 518.865L415.288 523.491L427.114 500.824L418.248 496.198ZM405.988 520.033L398.104 553.541L407.838 555.831L415.722 522.323L405.988 520.033ZM397.985 554.316L396.014 580.925L405.986 581.664L407.957 555.055L397.985 554.316ZM396 581.295V617.759H406V581.295H396ZM406.259 661.12L415.129 681.816L424.321 677.877L415.451 657.181L406.259 661.12ZM415.768 682.904L432.522 704.585L440.435 698.471L423.681 676.789L415.768 682.904ZM432.669 704.766L449.423 724.477L457.042 718L440.288 698.29L432.669 704.766ZM449.626 724.701L473.278 749.339L480.492 742.414L456.839 717.776L449.626 724.701ZM473.859 749.857L498.497 768.582L504.548 760.62L479.91 741.895L473.859 749.857ZM498.873 768.841L522.525 783.624L527.825 775.144L504.173 760.361L498.873 768.841ZM522.939 783.856L540.679 792.726L545.151 783.781L527.411 774.912L522.939 783.856ZM541.263 792.973L560.973 799.871L564.277 790.433L544.566 783.534L541.263 792.973ZM560.961 799.867L577.715 805.78L581.043 796.35L564.289 790.437L560.961 799.867ZM578.599 806.004L597.324 808.961L598.883 799.083L580.159 796.126L578.599 806.004ZM598.104 809.022H611.901V799.022H598.104V809.022ZM396.088 618.695L400.03 639.39L409.854 637.519L405.912 616.823L396.088 618.695ZM400.134 639.828L406.048 660.524L415.663 657.777L409.75 637.081L400.134 639.828ZM783.911 267.078L762.23 260.179L759.198 269.708L780.879 276.607L783.911 267.078ZM761.881 260.082L737.243 254.169L734.909 263.892L759.547 269.805L761.881 260.082Z" fill="#00A470"/>
<rect x="621.59" y="449.235" width="626.101" height="343.4" transform="rotate(0.136853 621.59 449.235)" fill="#ADFEE5" fill-opacity="0.8"/>
<rect x="196" y="771" width="1528.23" height="166" rx="60" fill="#F7F7F7"/>
<rect x="215" y="786" width="775.237" height="138.619" rx="60" fill="#DCDCDC"/>
<path d="M460.9 871V840.455H471.788C474.154 840.455 476.118 840.862 477.679 841.678C479.25 842.493 480.423 843.621 481.199 845.063C481.974 846.495 482.362 848.151 482.362 850.03C482.362 851.899 481.97 853.545 481.184 854.967C480.408 856.379 479.235 857.477 477.664 858.263C476.103 859.048 474.139 859.441 471.773 859.441H463.525V855.474H471.355C472.847 855.474 474.06 855.26 474.994 854.832C475.939 854.405 476.63 853.783 477.068 852.968C477.505 852.153 477.724 851.173 477.724 850.03C477.724 848.876 477.5 847.877 477.053 847.032C476.615 846.187 475.924 845.54 474.979 845.093C474.045 844.636 472.817 844.407 471.296 844.407H465.509V871H460.9ZM475.979 857.219L483.526 871H478.276L470.878 857.219H475.979ZM497.199 871.462C494.942 871.462 492.998 870.98 491.367 870.016C489.746 869.041 488.493 867.674 487.609 865.914C486.734 864.144 486.296 862.071 486.296 859.695C486.296 857.348 486.734 855.28 487.609 853.49C488.493 851.7 489.726 850.303 491.307 849.299C492.898 848.295 494.758 847.793 496.886 847.793C498.178 847.793 499.431 848.006 500.644 848.434C501.857 848.862 502.946 849.533 503.91 850.447C504.875 851.362 505.636 852.55 506.192 854.012C506.749 855.464 507.028 857.229 507.028 859.307V860.888H488.817V857.547H502.658C502.658 856.374 502.419 855.335 501.942 854.43C501.464 853.515 500.793 852.794 499.928 852.267C499.073 851.74 498.069 851.477 496.915 851.477C495.663 851.477 494.569 851.785 493.634 852.401C492.709 853.008 491.993 853.803 491.486 854.788C490.989 855.762 490.741 856.821 490.741 857.964V860.575C490.741 862.106 491.009 863.408 491.546 864.482C492.093 865.556 492.854 866.376 493.828 866.943C494.802 867.5 495.941 867.778 497.243 867.778C498.089 867.778 498.859 867.659 499.555 867.42C500.251 867.172 500.853 866.804 501.36 866.317C501.867 865.83 502.255 865.228 502.523 864.512L506.744 865.273C506.406 866.516 505.8 867.604 504.925 868.539C504.06 869.464 502.971 870.185 501.658 870.702C500.356 871.209 498.869 871.462 497.199 871.462ZM521.581 880.068C519.761 880.068 518.195 879.83 516.883 879.352C515.58 878.875 514.516 878.244 513.691 877.458C512.865 876.673 512.249 875.813 511.841 874.878L515.674 873.297C515.943 873.734 516.301 874.197 516.748 874.684C517.206 875.181 517.822 875.604 518.598 875.952C519.383 876.3 520.392 876.474 521.625 876.474C523.316 876.474 524.713 876.061 525.816 875.236C526.92 874.42 527.472 873.118 527.472 871.328V866.824H527.189C526.92 867.311 526.532 867.853 526.025 868.45C525.528 869.046 524.842 869.563 523.967 870.001C523.092 870.438 521.954 870.657 520.552 870.657C518.742 870.657 517.111 870.234 515.659 869.389C514.218 868.534 513.074 867.276 512.229 865.616C511.394 863.945 510.976 861.892 510.976 859.456C510.976 857.02 511.389 854.932 512.214 853.192C513.049 851.452 514.193 850.119 515.645 849.195C517.096 848.26 518.742 847.793 520.581 847.793C522.003 847.793 523.152 848.031 524.027 848.509C524.902 848.976 525.583 849.523 526.07 850.149C526.567 850.776 526.95 851.327 527.218 851.805H527.547V848.091H531.917V871.507C531.917 873.476 531.459 875.092 530.544 876.354C529.63 877.617 528.392 878.552 526.831 879.158C525.28 879.765 523.53 880.068 521.581 880.068ZM521.536 866.958C522.819 866.958 523.902 866.66 524.787 866.063C525.682 865.457 526.358 864.592 526.816 863.468C527.283 862.335 527.517 860.977 527.517 859.396C527.517 857.855 527.288 856.498 526.831 855.325C526.373 854.151 525.702 853.237 524.817 852.58C523.932 851.914 522.838 851.581 521.536 851.581C520.194 851.581 519.075 851.929 518.18 852.625C517.285 853.311 516.609 854.246 516.152 855.429C515.704 856.612 515.481 857.935 515.481 859.396C515.481 860.898 515.709 862.215 516.167 863.349C516.624 864.482 517.3 865.367 518.195 866.004C519.1 866.64 520.213 866.958 521.536 866.958ZM552.409 861.499V848.091H556.884V871H552.499V867.033H552.26C551.733 868.256 550.888 869.275 549.725 870.09C548.571 870.896 547.135 871.298 545.414 871.298C543.943 871.298 542.64 870.975 541.507 870.329C540.383 869.673 539.498 868.703 538.852 867.42C538.216 866.138 537.897 864.552 537.897 862.663V848.091H542.357V862.126C542.357 863.687 542.789 864.93 543.655 865.854C544.52 866.779 545.643 867.241 547.025 867.241C547.86 867.241 548.691 867.033 549.516 866.615C550.351 866.197 551.042 865.566 551.589 864.721C552.146 863.876 552.419 862.802 552.409 861.499ZM567.335 840.455V871H562.876V840.455H567.335ZM587.847 861.499V848.091H592.321V871H587.936V867.033H587.698C587.171 868.256 586.326 869.275 585.162 870.09C584.009 870.896 582.572 871.298 580.852 871.298C579.38 871.298 578.078 870.975 576.944 870.329C575.821 869.673 574.936 868.703 574.289 867.42C573.653 866.138 573.335 864.552 573.335 862.663V848.091H577.794V862.126C577.794 863.687 578.227 864.93 579.092 865.854C579.957 866.779 581.081 867.241 582.463 867.241C583.298 867.241 584.128 867.033 584.954 866.615C585.789 866.197 586.48 865.566 587.027 864.721C587.584 863.876 587.857 862.802 587.847 861.499ZM615.48 853.684L611.438 854.4C611.269 853.883 611.001 853.391 610.633 852.923C610.275 852.456 609.788 852.073 609.171 851.775C608.555 851.477 607.784 851.327 606.86 851.327C605.597 851.327 604.543 851.611 603.698 852.178C602.852 852.734 602.43 853.455 602.43 854.34C602.43 855.106 602.713 855.722 603.28 856.19C603.847 856.657 604.762 857.04 606.024 857.338L609.664 858.173C611.772 858.661 613.343 859.411 614.377 860.425C615.411 861.44 615.928 862.757 615.928 864.378C615.928 865.75 615.53 866.973 614.735 868.047C613.949 869.111 612.85 869.946 611.438 870.553C610.036 871.159 608.411 871.462 606.561 871.462C603.996 871.462 601.903 870.915 600.282 869.822C598.661 868.718 597.667 867.152 597.299 865.124L601.61 864.467C601.878 865.591 602.43 866.441 603.265 867.018C604.1 867.585 605.189 867.868 606.531 867.868C607.993 867.868 609.161 867.565 610.036 866.958C610.911 866.342 611.349 865.591 611.349 864.706C611.349 863.99 611.08 863.388 610.544 862.901C610.017 862.414 609.206 862.046 608.112 861.798L604.235 860.947C602.097 860.46 600.516 859.685 599.492 858.621C598.477 857.557 597.97 856.21 597.97 854.579C597.97 853.227 598.348 852.043 599.104 851.029C599.86 850.015 600.904 849.224 602.236 848.658C603.568 848.081 605.095 847.793 606.815 847.793C609.291 847.793 611.24 848.33 612.661 849.403C614.083 850.467 615.023 851.894 615.48 853.684ZM657.674 850.388H653.021C652.842 849.393 652.509 848.518 652.022 847.763C651.534 847.007 650.938 846.366 650.232 845.839C649.526 845.312 648.735 844.914 647.86 844.646C646.995 844.377 646.076 844.243 645.101 844.243C643.341 844.243 641.765 844.685 640.373 845.57C638.991 846.455 637.897 847.753 637.092 849.463C636.296 851.173 635.899 853.261 635.899 855.727C635.899 858.213 636.296 860.311 637.092 862.021C637.897 863.732 638.996 865.024 640.388 865.899C641.78 866.774 643.346 867.212 645.086 867.212C646.051 867.212 646.965 867.082 647.83 866.824C648.705 866.555 649.496 866.163 650.202 865.646C650.908 865.129 651.504 864.497 651.992 863.751C652.489 862.996 652.832 862.131 653.021 861.156L657.674 861.171C657.426 862.673 656.943 864.055 656.228 865.317C655.522 866.57 654.612 867.654 653.498 868.569C652.394 869.474 651.132 870.175 649.71 870.672C648.288 871.169 646.737 871.418 645.056 871.418C642.411 871.418 640.055 870.791 637.987 869.538C635.919 868.276 634.288 866.471 633.095 864.124C631.911 861.778 631.32 858.979 631.32 855.727C631.32 852.466 631.916 849.667 633.11 847.33C634.303 844.984 635.933 843.184 638.002 841.931C640.07 840.668 642.421 840.037 645.056 840.037C646.677 840.037 648.188 840.271 649.59 840.738C651.002 841.195 652.27 841.871 653.394 842.766C654.517 843.651 655.447 844.735 656.183 846.018C656.919 847.29 657.416 848.747 657.674 850.388ZM667.291 840.455V871H662.831V840.455H667.291ZM682.94 871.462C680.792 871.462 678.918 870.97 677.317 869.986C675.716 869.001 674.473 867.624 673.588 865.854C672.703 864.085 672.261 862.016 672.261 859.65C672.261 857.273 672.703 855.195 673.588 853.415C674.473 851.636 675.716 850.254 677.317 849.269C678.918 848.285 680.792 847.793 682.94 847.793C685.088 847.793 686.962 848.285 688.563 849.269C690.164 850.254 691.406 851.636 692.291 853.415C693.176 855.195 693.619 857.273 693.619 859.65C693.619 862.016 693.176 864.085 692.291 865.854C691.406 867.624 690.164 869.001 688.563 869.986C686.962 870.97 685.088 871.462 682.94 871.462ZM682.955 867.719C684.347 867.719 685.5 867.351 686.415 866.615C687.33 865.879 688.006 864.9 688.443 863.677C688.891 862.454 689.115 861.107 689.115 859.635C689.115 858.173 688.891 856.831 688.443 855.608C688.006 854.375 687.33 853.386 686.415 852.64C685.5 851.894 684.347 851.521 682.955 851.521C681.553 851.521 680.389 851.894 679.465 852.64C678.55 853.386 677.869 854.375 677.421 855.608C676.984 856.831 676.765 858.173 676.765 859.635C676.765 861.107 676.984 862.454 677.421 863.677C677.869 864.9 678.55 865.879 679.465 866.615C680.389 867.351 681.553 867.719 682.955 867.719ZM713.109 861.499V848.091H717.583V871H713.198V867.033H712.96C712.433 868.256 711.587 869.275 710.424 870.09C709.271 870.896 707.834 871.298 706.114 871.298C704.642 871.298 703.34 870.975 702.206 870.329C701.082 869.673 700.197 868.703 699.551 867.42C698.915 866.138 698.597 864.552 698.597 862.663V848.091H703.056V862.126C703.056 863.687 703.489 864.93 704.354 865.854C705.219 866.779 706.342 867.241 707.724 867.241C708.56 867.241 709.39 867.033 710.215 866.615C711.05 866.197 711.742 865.566 712.288 864.721C712.845 863.876 713.119 862.802 713.109 861.499ZM732.151 871.447C730.302 871.447 728.651 870.975 727.199 870.031C725.758 869.076 724.624 867.719 723.799 865.959C722.984 864.189 722.576 862.066 722.576 859.59C722.576 857.114 722.988 854.996 723.814 853.237C724.649 851.477 725.792 850.129 727.244 849.195C728.696 848.26 730.341 847.793 732.181 847.793C733.603 847.793 734.746 848.031 735.611 848.509C736.486 848.976 737.162 849.523 737.64 850.149C738.127 850.776 738.505 851.327 738.773 851.805H739.042V840.455H743.501V871H739.146V867.435H738.773C738.505 867.923 738.117 868.479 737.61 869.106C737.113 869.732 736.427 870.279 735.552 870.746C734.677 871.214 733.543 871.447 732.151 871.447ZM733.136 867.644C734.418 867.644 735.502 867.306 736.387 866.63C737.282 865.944 737.958 864.994 738.415 863.781C738.883 862.568 739.116 861.156 739.116 859.545C739.116 857.955 738.888 856.562 738.43 855.369C737.973 854.176 737.302 853.246 736.417 852.58C735.532 851.914 734.438 851.581 733.136 851.581C731.793 851.581 730.675 851.929 729.78 852.625C728.885 853.321 728.209 854.271 727.751 855.474C727.304 856.677 727.08 858.034 727.08 859.545C727.08 861.077 727.309 862.454 727.766 863.677C728.224 864.9 728.9 865.869 729.795 866.585C730.699 867.291 731.813 867.644 733.136 867.644Z" fill="black"/>
<path d="M1208.78 849.396C1208.62 847.984 1207.97 846.891 1206.81 846.115C1205.66 845.329 1204.21 844.937 1202.46 844.937C1201.2 844.937 1200.12 845.136 1199.21 845.533C1198.29 845.921 1197.58 846.458 1197.07 847.144C1196.58 847.82 1196.33 848.591 1196.33 849.456C1196.33 850.182 1196.5 850.808 1196.83 851.335C1197.18 851.862 1197.64 852.305 1198.19 852.663C1198.76 853.011 1199.37 853.304 1200.01 853.543C1200.66 853.771 1201.28 853.96 1201.88 854.109L1204.86 854.885C1205.83 855.124 1206.83 855.447 1207.86 855.854C1208.88 856.262 1209.83 856.799 1210.71 857.465C1211.58 858.131 1212.29 858.957 1212.82 859.941C1213.37 860.925 1213.64 862.104 1213.64 863.476C1213.64 865.206 1213.2 866.742 1212.3 868.084C1211.42 869.427 1210.13 870.486 1208.44 871.261C1206.76 872.037 1204.72 872.425 1202.34 872.425C1200.05 872.425 1198.07 872.062 1196.4 871.336C1194.73 870.61 1193.42 869.581 1192.48 868.249C1191.54 866.906 1191.01 865.315 1190.91 863.476H1195.54C1195.63 864.579 1195.98 865.499 1196.61 866.235C1197.25 866.961 1198.06 867.503 1199.04 867.861C1200.04 868.209 1201.13 868.383 1202.31 868.383C1203.61 868.383 1204.77 868.179 1205.78 867.771C1206.81 867.354 1207.61 866.777 1208.2 866.041C1208.79 865.295 1209.08 864.425 1209.08 863.431C1209.08 862.526 1208.82 861.785 1208.3 861.209C1207.8 860.632 1207.11 860.155 1206.23 859.777C1205.37 859.399 1204.39 859.066 1203.29 858.778L1199.68 857.793C1197.24 857.127 1195.3 856.148 1193.87 854.855C1192.45 853.562 1191.73 851.852 1191.73 849.724C1191.73 847.964 1192.21 846.428 1193.17 845.116C1194.12 843.803 1195.41 842.784 1197.04 842.058C1198.67 841.322 1200.51 840.954 1202.56 840.954C1204.63 840.954 1206.45 841.317 1208.04 842.043C1209.63 842.769 1210.88 843.768 1211.79 845.041C1212.71 846.304 1213.19 847.756 1213.23 849.396H1208.78ZM1228.67 872.38C1226.41 872.38 1224.47 871.898 1222.84 870.933C1221.21 869.959 1219.96 868.592 1219.08 866.832C1218.2 865.062 1217.76 862.989 1217.76 860.612C1217.76 858.266 1218.2 856.197 1219.08 854.408C1219.96 852.618 1221.19 851.221 1222.78 850.217C1224.37 849.212 1226.23 848.71 1228.35 848.71C1229.65 848.71 1230.9 848.924 1232.11 849.351C1233.33 849.779 1234.41 850.45 1235.38 851.365C1236.34 852.28 1237.1 853.468 1237.66 854.93C1238.22 856.381 1238.5 858.146 1238.5 860.224V861.805H1220.28V858.464H1234.13C1234.13 857.291 1233.89 856.252 1233.41 855.347C1232.93 854.432 1232.26 853.712 1231.4 853.185C1230.54 852.658 1229.54 852.394 1228.38 852.394C1227.13 852.394 1226.04 852.702 1225.1 853.319C1224.18 853.925 1223.46 854.721 1222.95 855.705C1222.46 856.68 1222.21 857.739 1222.21 858.882V861.492C1222.21 863.023 1222.48 864.326 1223.01 865.4C1223.56 866.474 1224.32 867.294 1225.3 867.861C1226.27 868.418 1227.41 868.696 1228.71 868.696C1229.56 868.696 1230.33 868.577 1231.02 868.338C1231.72 868.089 1232.32 867.722 1232.83 867.234C1233.34 866.747 1233.72 866.146 1233.99 865.43L1238.21 866.19C1237.87 867.433 1237.27 868.522 1236.39 869.457C1235.53 870.381 1234.44 871.102 1233.13 871.619C1231.82 872.126 1230.34 872.38 1228.67 872.38ZM1247.9 841.372V871.918H1243.44V841.372H1247.9ZM1264.81 849.008V852.588H1251.86V849.008H1264.81ZM1255.41 871.918V846.354C1255.41 844.922 1255.72 843.734 1256.35 842.789C1256.98 841.834 1257.81 841.124 1258.84 840.656C1259.87 840.179 1261 839.94 1262.21 839.94C1263.11 839.94 1263.87 840.015 1264.51 840.164C1265.14 840.303 1265.62 840.432 1265.92 840.552L1264.88 844.161C1264.67 844.101 1264.4 844.032 1264.07 843.952C1263.75 843.863 1263.35 843.818 1262.88 843.818C1261.8 843.818 1261.02 844.087 1260.55 844.624C1260.1 845.16 1259.87 845.936 1259.87 846.95V871.918H1255.41ZM1280.88 871.918V841.372H1285.49V854.646H1300.72V841.372H1305.34V871.918H1300.72V858.599H1285.49V871.918H1280.88ZM1321.34 872.38C1319.2 872.38 1317.32 871.888 1315.72 870.903C1314.12 869.919 1312.88 868.542 1311.99 866.772C1311.11 865.002 1310.66 862.934 1310.66 860.567C1310.66 858.191 1311.11 856.113 1311.99 854.333C1312.88 852.553 1314.12 851.171 1315.72 850.187C1317.32 849.202 1319.2 848.71 1321.34 848.71C1323.49 848.71 1325.37 849.202 1326.97 850.187C1328.57 851.171 1329.81 852.553 1330.7 854.333C1331.58 856.113 1332.02 858.191 1332.02 860.567C1332.02 862.934 1331.58 865.002 1330.7 866.772C1329.81 868.542 1328.57 869.919 1326.97 870.903C1325.37 871.888 1323.49 872.38 1321.34 872.38ZM1321.36 868.636C1322.75 868.636 1323.9 868.268 1324.82 867.533C1325.73 866.797 1326.41 865.817 1326.85 864.594C1327.29 863.371 1327.52 862.024 1327.52 860.552C1327.52 859.091 1327.29 857.749 1326.85 856.525C1326.41 855.293 1325.73 854.303 1324.82 853.557C1323.9 852.812 1322.75 852.439 1321.36 852.439C1319.96 852.439 1318.79 852.812 1317.87 853.557C1316.95 854.303 1316.27 855.293 1315.83 856.525C1315.39 857.749 1315.17 859.091 1315.17 860.552C1315.17 862.024 1315.39 863.371 1315.83 864.594C1316.27 865.817 1316.95 866.797 1317.87 867.533C1318.79 868.268 1319.96 868.636 1321.36 868.636ZM1354.17 854.601L1350.13 855.317C1349.96 854.8 1349.69 854.308 1349.32 853.841C1348.96 853.374 1348.47 852.991 1347.86 852.692C1347.24 852.394 1346.47 852.245 1345.55 852.245C1344.28 852.245 1343.23 852.528 1342.38 853.095C1341.54 853.652 1341.12 854.373 1341.12 855.258C1341.12 856.023 1341.4 856.64 1341.97 857.107C1342.53 857.575 1343.45 857.957 1344.71 858.256L1348.35 859.091C1350.46 859.578 1352.03 860.329 1353.06 861.343C1354.1 862.357 1354.61 863.675 1354.61 865.295C1354.61 866.668 1354.22 867.891 1353.42 868.964C1352.64 870.028 1351.54 870.864 1350.13 871.47C1348.72 872.077 1347.1 872.38 1345.25 872.38C1342.68 872.38 1340.59 871.833 1338.97 870.739C1337.35 869.636 1336.35 868.07 1335.99 866.041L1340.3 865.385C1340.56 866.508 1341.12 867.359 1341.95 867.935C1342.79 868.502 1343.88 868.785 1345.22 868.785C1346.68 868.785 1347.85 868.482 1348.72 867.876C1349.6 867.259 1350.04 866.508 1350.04 865.624C1350.04 864.908 1349.77 864.306 1349.23 863.819C1348.7 863.332 1347.89 862.964 1346.8 862.715L1342.92 861.865C1340.78 861.378 1339.2 860.602 1338.18 859.538C1337.16 858.474 1336.66 857.127 1336.66 855.496C1336.66 854.144 1337.04 852.961 1337.79 851.947C1338.55 850.932 1339.59 850.142 1340.92 849.575C1342.26 848.999 1343.78 848.71 1345.5 848.71C1347.98 848.71 1349.93 849.247 1351.35 850.321C1352.77 851.385 1353.71 852.812 1354.17 854.601ZM1370.21 849.008V852.588H1357.7V849.008H1370.21ZM1361.05 843.52H1365.51V865.191C1365.51 866.056 1365.64 866.707 1365.9 867.145C1366.16 867.572 1366.49 867.866 1366.9 868.025C1367.32 868.174 1367.77 868.249 1368.26 868.249C1368.62 868.249 1368.93 868.224 1369.2 868.174C1369.47 868.124 1369.67 868.084 1369.82 868.055L1370.63 871.739C1370.37 871.838 1370 871.937 1369.53 872.037C1369.05 872.146 1368.45 872.206 1367.74 872.216C1366.56 872.236 1365.47 872.027 1364.45 871.589C1363.44 871.152 1362.62 870.476 1361.99 869.561C1361.37 868.646 1361.05 867.498 1361.05 866.116V843.52ZM1384.77 872.38C1382.52 872.38 1380.57 871.898 1378.94 870.933C1377.32 869.959 1376.07 868.592 1375.18 866.832C1374.31 865.062 1373.87 862.989 1373.87 860.612C1373.87 858.266 1374.31 856.197 1375.18 854.408C1376.07 852.618 1377.3 851.221 1378.88 850.217C1380.47 849.212 1382.33 848.71 1384.46 848.71C1385.75 848.71 1387 848.924 1388.22 849.351C1389.43 849.779 1390.52 850.45 1391.48 851.365C1392.45 852.28 1393.21 853.468 1393.77 854.93C1394.32 856.381 1394.6 858.146 1394.6 860.224V861.805H1376.39V858.464H1390.23C1390.23 857.291 1389.99 856.252 1389.52 855.347C1389.04 854.432 1388.37 853.712 1387.5 853.185C1386.65 852.658 1385.64 852.394 1384.49 852.394C1383.24 852.394 1382.14 852.702 1381.21 853.319C1380.28 853.925 1379.57 854.721 1379.06 855.705C1378.56 856.68 1378.31 857.739 1378.31 858.882V861.492C1378.31 863.023 1378.58 864.326 1379.12 865.4C1379.67 866.474 1380.43 867.294 1381.4 867.861C1382.38 868.418 1383.51 868.696 1384.82 868.696C1385.66 868.696 1386.43 868.577 1387.13 868.338C1387.82 868.089 1388.43 867.722 1388.93 867.234C1389.44 866.747 1389.83 866.146 1390.1 865.43L1394.32 866.19C1393.98 867.433 1393.37 868.522 1392.5 869.457C1391.63 870.381 1390.54 871.102 1389.23 871.619C1387.93 872.126 1386.44 872.38 1384.77 872.38ZM1408.13 872.365C1406.28 872.365 1404.63 871.893 1403.17 870.948C1401.73 869.994 1400.6 868.636 1399.77 866.876C1398.96 865.106 1398.55 862.984 1398.55 860.508C1398.55 858.032 1398.96 855.914 1399.79 854.154C1400.62 852.394 1401.77 851.047 1403.22 850.112C1404.67 849.177 1406.32 848.71 1408.15 848.71C1409.58 848.71 1410.72 848.949 1411.59 849.426C1412.46 849.893 1413.14 850.44 1413.61 851.067C1414.1 851.693 1414.48 852.245 1414.75 852.722H1415.02V841.372H1419.48V871.918H1415.12V868.353H1414.75C1414.48 868.84 1414.09 869.397 1413.58 870.023C1413.09 870.65 1412.4 871.197 1411.53 871.664C1410.65 872.131 1409.52 872.365 1408.13 872.365ZM1409.11 868.562C1410.39 868.562 1411.48 868.224 1412.36 867.548C1413.26 866.861 1413.93 865.912 1414.39 864.699C1414.86 863.486 1415.09 862.074 1415.09 860.463C1415.09 858.872 1414.86 857.48 1414.4 856.287C1413.95 855.094 1413.28 854.164 1412.39 853.498C1411.51 852.832 1410.41 852.499 1409.11 852.499C1407.77 852.499 1406.65 852.847 1405.75 853.543C1404.86 854.239 1404.18 855.188 1403.73 856.391C1403.28 857.594 1403.05 858.952 1403.05 860.463C1403.05 861.994 1403.28 863.371 1403.74 864.594C1404.2 865.817 1404.87 866.787 1405.77 867.503C1406.67 868.209 1407.79 868.562 1409.11 868.562Z" fill="black"/>
</svg>
